<svg width="545.3425537109375px" height="136.8325225830078px" xmlns="http://www.w3.org/2000/svg" viewBox="-22.67127685546876 6.583738708496099 545.3425537109375 136.8325225830078" style="background: rgba(0, 0, 0, 0);" preserveAspectRatio="xMidYMid"><defs><linearGradient id="editing-shiny-gradient" x1="0.04322727117869957" x2="0.9567727288213004" y1="0.2966316784620999" y2="0.7033683215379001" gradientUnits="objectBoundingBox"><stop offset="0.0" stop-color="#c4bdad"></stop><stop offset="0.5" stop-color="#ddd0d5"></stop><stop offset="1.0" stop-color="#eeebf0"></stop></linearGradient><linearGradient id="editing-shiny-gradient2" x1="0" x2="0" y1="0" y2="1"><stop offset="0.2" stop-color="#fff" stop-opacity="0.8"></stop><stop offset="0.8" stop-color="#fff" stop-opacity="0"></stop></linearGradient><filter id="editing-shiny2" x="-100%" y="-100%" width="300%" height="300%"><feMorphology operator="erode" radius="2"></feMorphology></filter><filter id="editing-shiny" x="-100%" y="-100%" width="300%" height="300%"><feFlood flood-color="#fff" result="flood"></feFlood><feConvolveMatrix in="SourceGraphic" result="conv" order="8,8" divisor="1" kernelMatrix="0 0 0 0 0 0 0 0 0 0 0 1 1 0 0 0 0 0 0 1 1 0 0 0 0 0 1 0 0 1 0 0 0 0 1 0 0 1 0 0 0 1 0 0 0 0 1 0 0 1 1 0 0 1 1 0 0 0 0 1 1 0 0 0 "></feConvolveMatrix><feOffset dx="0" dy="4" in="conv" result="offset"></feOffset><feComposite operator="in" in="flood" in2="offset" result="comp"></feComposite><feGaussianBlur in="offset" stdDeviation="3" result="shadow"></feGaussianBlur><feColorMatrix in="shadow" type="matrix" values="0.7 0 0 0 0  0 0.7 0 0 0  0 0 0.7 0 0  0 0 0 0.3 0" result="dark-shadow"></feColorMatrix><feOffset dx="0" dy="4" in="dark-shadow" result="offset-shadow"></feOffset><feOffset dx="0" dy="2" in="conv" result="offset-2"></feOffset><feComposite operator="out" in="offset" in2="offset-2" result="edge-diff"></feComposite><feGaussianBlur in="edge-diff" stdDeviation="1" result="edge-blur"></feGaussianBlur><feColorMatrix in="edge-blur" result="edge-shadow" type="matrix" values="0 0 0 0 0  0 0 0 0 0  0 0 0 0 0  0 0 0 0.5 0"></feColorMatrix><feComposite operator="in" in="edge-shadow" in2="offset" result="edge-shadow-in"></feComposite><feOffset dx="0" dy="1" in="edge-shadow-in" result="edge-shadow-final"></feOffset><feMerge result="out"><feMergeNode in="offset-shadow"></feMergeNode><feMergeNode in="comp"></feMergeNode><feMergeNode in="edge-shadow-final"></feMergeNode><feMergeNode in="SourceGraphic"></feMergeNode></feMerge></filter></defs><g filter="url(#editing-shiny)"><g transform="translate(57.305004239082336, 107.45000076293945)"><path d="M16.35 0L0.59 0L9.03-44.99L9.84-48.84L25.68-48.84L16.35 0ZM46.40-4.37L46.40-4.37L46.40-4.37Q44.40 1.48 36.70 1.48L36.70 1.48L36.70 1.48Q31.01 1.48 27.08-5.33L27.08-5.33L27.08-5.33Q23.09-12.14 22.35-23.24L22.35-23.24L22.35-23.24Q30.49-38.11 36.11-44.25L36.11-44.25L36.11-44.25Q41.51-50.10 47.14-50.10L47.14-50.10L47.14-50.10Q50.17-50.10 52.35-48.47L52.35-48.47L52.35-48.47Q54.54-46.84 55.06-44.25L55.06-44.25L55.06-44.25Q52.54-43.22 51.36-42.40L51.36-42.40L51.36-42.40Q48.40-40.18 44.40-35.22L44.40-35.22L37.67-27.16L37.67-27.16Q36.04-25.23 35.37-24.35L35.37-24.35L35.37-24.35Q36.48-18.13 39.81-11.99L39.81-11.99L39.81-11.99Q42.99-6.14 46.40-4.37ZM80.59-12.51L80.59-12.51L80.59-12.51Q82.44-11.25 82.44-8.47L82.44-8.47L82.44-8.47Q82.44-5.70 81.03-3.92L81.03-3.92L81.03-3.92Q79.62-2.15 77.33-0.96L77.33-0.96L77.33-0.96Q72.59 1.48 67.49 1.48L67.49 1.48L67.49 1.48Q62.38 1.48 59.38 0.37L59.38 0.37L59.38 0.37Q56.39-0.74 54.39-2.81L54.39-2.81L54.39-2.81Q50.47-6.73 50.47-13.91L50.47-13.91L50.47-13.91Q50.47-25.09 56.54-31.89L56.54-31.89L56.54-31.89Q63.05-39.22 74.37-39.22L74.37-39.22L74.37-39.22Q81.40-39.22 84.88-36.26L84.88-36.26L84.88-36.26Q87.47-34.04 87.47-30.41L87.47-30.41L87.47-30.41Q87.47-17.39 64.97-17.39L64.97-17.39L64.97-17.39Q64.68-15.47 64.68-13.84L64.68-13.84L64.68-13.84Q64.68-10.43 66.19-9.14L66.19-9.14L66.19-9.14Q67.71-7.84 70.52-7.84L70.52-7.84L70.52-7.84Q73.33-7.84 76.33-9.14L76.33-9.14L76.33-9.14Q79.33-10.43 80.59-12.51ZM65.49-20.57L65.49-20.57L65.49-20.57Q70.74-20.57 73.78-23.83L73.78-23.83L73.78-23.83Q76.81-26.94 76.81-31.89L76.81-31.89L76.81-31.89Q76.81-33.60 76.18-34.52L76.18-34.52L76.18-34.52Q75.55-35.45 74.30-35.45L74.30-35.45L74.30-35.45Q73.04-35.45 71.97-34.96L71.97-34.96L71.97-34.96Q70.89-34.48 69.78-32.86L69.78-32.86L69.78-32.86Q67.04-29.16 65.49-20.57ZM119.95-12.51L119.95-12.51L119.95-12.51Q121.80-11.25 121.80-8.47L121.80-8.47L121.80-8.47Q121.80-5.70 120.40-3.92L120.40-3.92L120.40-3.92Q118.99-2.15 116.70-0.96L116.70-0.96L116.70-0.96Q111.96 1.48 106.86 1.48L106.86 1.48L106.86 1.48Q101.75 1.48 98.75 0.37L98.75 0.37L98.75 0.37Q95.76-0.74 93.76-2.81L93.76-2.81L93.76-2.81Q89.84-6.73 89.84-13.91L89.84-13.91L89.84-13.91Q89.84-25.09 95.90-31.89L95.90-31.89L95.90-31.89Q102.42-39.22 113.74-39.22L113.74-39.22L113.74-39.22Q120.77-39.22 124.25-36.26L124.25-36.26L124.25-36.26Q126.84-34.04 126.84-30.41L126.84-30.41L126.84-30.41Q126.84-17.39 104.34-17.39L104.34-17.39L104.34-17.39Q104.04-15.47 104.04-13.84L104.04-13.84L104.04-13.84Q104.04-10.43 105.56-9.14L105.56-9.14L105.56-9.14Q107.08-7.84 109.89-7.84L109.89-7.84L109.89-7.84Q112.70-7.84 115.70-9.14L115.70-9.14L115.70-9.14Q118.70-10.43 119.95-12.51ZM104.86-20.57L104.86-20.57L104.86-20.57Q110.11-20.57 113.15-23.83L113.15-23.83L113.15-23.83Q116.18-26.94 116.18-31.89L116.18-31.89L116.18-31.89Q116.18-33.60 115.55-34.52L115.55-34.52L115.55-34.52Q114.92-35.45 113.66-35.45L113.66-35.45L113.66-35.45Q112.41-35.45 111.33-34.96L111.33-34.96L111.33-34.96Q110.26-34.48 109.15-32.86L109.15-32.86L109.15-32.86Q106.41-29.16 104.86-20.57ZM163.84-5.07L163.84-5.07L163.84-5.07Q160.73-1.92 156.47-0.22L156.47-0.22L156.47-0.22Q152.22 1.48 148 1.48L148 1.48L148 1.48Q143.78 1.48 142.30 0.74L142.30 0.74L140.01 13.32L124.99 14.80L135.20-37.74L147.26-39.00L146.30-33.89L146.30-33.89Q149.41-39.15 155.84-39.15L155.84-39.15L155.84-39.15Q163.10-39.15 166.94-34.48L166.94-34.48L166.94-34.48Q170.35-30.27 170.35-23.83L170.35-23.83L170.35-23.83Q170.35-17.39 168.65-12.80L168.65-12.80L168.65-12.80Q166.94-8.21 163.84-5.07ZM147.11-25.83L143.19-4.14L143.19-4.14Q144.74-2.81 146.67-2.81L146.67-2.81L146.67-2.81Q148.59-2.81 149.70-3.55L149.70-3.55L149.70-3.55Q150.81-4.29 151.63-5.77L151.63-5.77L151.63-5.77Q153.85-9.77 155.62-21.90L155.62-21.90L155.62-21.90Q156.14-25.46 156.14-28.93L156.14-28.93L156.14-28.93Q156.14-32.41 155.36-33.52L155.36-33.52L155.36-33.52Q154.59-34.63 153.11-34.63L153.11-34.63L153.11-34.63Q148.59-34.63 147.11-25.83L147.11-25.83ZM197.65 0L189.51 0L198.39-48.84L214.30-48.84L225.85-15.24L231.99-48.84L240.20-48.77L231.18 0L214.23 0L203.57-32.34L197.65 0ZM258.19 1.48L258.19 1.48L258.19 1.48Q241.91 1.48 241.91-13.84L241.91-13.84L241.91-13.84Q241.91-24.72 247.90-31.75L247.90-31.75L247.90-31.75Q254.26-39.22 265.29-39.22L265.29-39.22L265.29-39.22Q273.28-39.22 277.35-35.52L277.35-35.52L277.35-35.52Q281.42-31.82 281.42-24.05L281.42-24.05L281.42-24.05Q281.42-12.21 275.06-5.33L275.06-5.33L275.06-5.33Q268.84 1.48 258.19 1.48ZM260.11-30.71L260.11-30.71L260.11-30.71Q259.22-28.71 258.52-25.71L258.52-25.71L258.52-25.71Q257.82-22.72 256.93-17.98L256.93-17.98L256.93-17.98Q256.04-13.25 256.04-7.40L256.04-7.40L256.04-7.40Q256.04-5.48 256.67-4.22L256.67-4.22L256.67-4.22Q257.30-2.96 259-2.96L259-2.96L259-2.96Q260.70-2.96 261.77-3.77L261.77-3.77L261.77-3.77Q262.85-4.59 263.66-6.51L263.66-6.51L263.66-6.51Q265.14-9.92 266.33-16.24L266.33-16.24L266.33-16.24Q267.51-22.57 267.62-25.31L267.62-25.31L267.62-25.31Q267.73-28.05 267.73-30.08L267.73-30.08L267.73-30.08Q267.73-32.12 267.14-33.45L267.14-33.45L267.14-33.45Q266.55-34.78 264.88-34.78L264.88-34.78L264.88-34.78Q263.22-34.78 262.11-33.74L262.11-33.74L262.11-33.74Q261.00-32.71 260.11-30.71ZM286.97-7.40L286.97-7.40L286.97-7.40Q286.97-9.40 288.01-14.43L288.01-14.43L291.93-34.41L287.56-34.41L287.86-36.63L287.86-36.63Q296.74-39.29 305.32-45.81L305.32-45.81L308.88-45.81L307.10-37.74L312.87-37.74L312.21-34.41L306.51-34.41L302.73-14.43L302.73-14.43Q301.77-9.84 301.77-8.29L301.77-8.29L301.77-8.29Q301.77-4.74 304.88-4.00L304.88-4.00L304.88-4.00Q304.14-1.48 301.48 0L301.48 0L301.48 0Q298.81 1.48 295.04 1.48L295.04 1.48L295.04 1.48Q291.26 1.48 289.12-0.89L289.12-0.89L289.12-0.89Q286.97-3.26 286.97-7.40ZM342.18-12.51L342.18-12.51L342.18-12.51Q344.03-11.25 344.03-8.47L344.03-8.47L344.03-8.47Q344.03-5.70 342.62-3.92L342.62-3.92L342.62-3.92Q341.21-2.15 338.92-0.96L338.92-0.96L338.92-0.96Q334.18 1.48 329.08 1.48L329.08 1.48L329.08 1.48Q323.97 1.48 320.97 0.37L320.97 0.37L320.97 0.37Q317.98-0.74 315.98-2.81L315.98-2.81L315.98-2.81Q312.06-6.73 312.06-13.91L312.06-13.91L312.06-13.91Q312.06-25.09 318.13-31.89L318.13-31.89L318.13-31.89Q324.64-39.22 335.96-39.22L335.96-39.22L335.96-39.22Q342.99-39.22 346.47-36.26L346.47-36.26L346.47-36.26Q349.06-34.04 349.06-30.41L349.06-30.41L349.06-30.41Q349.06-17.39 326.56-17.39L326.56-17.39L326.56-17.39Q326.27-15.47 326.27-13.84L326.27-13.84L326.27-13.84Q326.27-10.43 327.78-9.14L327.78-9.14L327.78-9.14Q329.30-7.84 332.11-7.84L332.11-7.84L332.11-7.84Q334.92-7.84 337.92-9.14L337.92-9.14L337.92-9.14Q340.92-10.43 342.18-12.51ZM327.08-20.57L327.08-20.57L327.08-20.57Q332.33-20.57 335.37-23.83L335.37-23.83L335.37-23.83Q338.40-26.94 338.40-31.89L338.40-31.89L338.40-31.89Q338.40-33.60 337.77-34.52L337.77-34.52L337.77-34.52Q337.14-35.45 335.89-35.45L335.89-35.45L335.89-35.45Q334.63-35.45 333.55-34.96L333.55-34.96L333.55-34.96Q332.48-34.48 331.37-32.86L331.37-32.86L331.37-32.86Q328.63-29.16 327.08-20.57ZM373.70-25.97L373.70-25.97L373.70-25.97Q374.74-28.71 374.74-31.08L374.74-31.08L374.74-31.08Q374.74-35.45 371.18-35.45L371.18-35.45L371.18-35.45Q369.33-35.45 367.82-33.78L367.82-33.78L367.82-33.78Q366.30-32.12 366.30-30.04L366.30-30.04L366.30-30.04Q366.30-28.56 367.48-27.38L367.48-27.38L367.48-27.38Q369.19-25.75 373.55-23.09L373.55-23.09L373.55-23.09Q377.92-20.42 379.58-18.24L379.58-18.24L379.58-18.24Q381.25-16.06 381.25-13.06L381.25-13.06L381.25-13.06Q381.25-10.06 379.80-7.33L379.80-7.33L379.80-7.33Q378.36-4.59 375.77-2.66L375.77-2.66L375.77-2.66Q370.22 1.48 361.34 1.48L361.34 1.48L361.34 1.48Q356.53 1.48 352.83-1.04L352.83-1.04L352.83-1.04Q349.13-3.48 349.13-6.36L349.13-6.36L349.13-6.36Q349.13-9.25 351.24-10.95L351.24-10.95L351.24-10.95Q353.35-12.65 356.46-12.65L356.46-12.65L356.46-12.65Q359.57-12.65 361.49-11.47L361.49-11.47L361.49-11.47Q360.53-9.03 360.53-7.40L360.53-7.40L360.53-7.40Q360.53-2.52 364.67-2.52L364.67-2.52L364.67-2.52Q366.45-2.52 367.63-3.63L367.63-3.63L367.63-3.63Q368.82-4.74 368.82-6.66L368.82-6.66L368.82-6.66Q368.82-10.43 362.45-14.43L362.45-14.43L362.45-14.43Q357.27-17.83 356.09-19.17L356.09-19.17L356.09-19.17Q354.09-21.53 354.09-24.49L354.09-24.49L354.09-24.49Q354.09-27.45 355.50-30.27L355.50-30.27L355.50-30.27Q356.90-33.08 359.49-35.08L359.49-35.08L359.49-35.08Q364.89-39.22 374.29-39.22L374.29-39.22L374.29-39.22Q379.10-39.22 381.95-37.30L381.95-37.30L381.95-37.30Q384.80-35.37 384.80-32.12L384.80-32.12L384.80-32.12Q384.80-28.86 382.84-27.01L382.84-27.01L382.84-27.01Q380.88-25.16 377.33-25.16L377.33-25.16L377.33-25.16Q374.88-25.16 373.70-25.97Z" fill="url(#editing-shiny-gradient)"></path></g></g><g filter="url(#editing-shiny2)"><g transform="translate(57.305004239082336, 107.45000076293945)"><path d="M16.35 0L0.59 0L9.03-44.99L9.84-48.84L25.68-48.84L16.35 0ZM46.40-4.37L46.40-4.37L46.40-4.37Q44.40 1.48 36.70 1.48L36.70 1.48L36.70 1.48Q31.01 1.48 27.08-5.33L27.08-5.33L27.08-5.33Q23.09-12.14 22.35-23.24L22.35-23.24L22.35-23.24Q30.49-38.11 36.11-44.25L36.11-44.25L36.11-44.25Q41.51-50.10 47.14-50.10L47.14-50.10L47.14-50.10Q50.17-50.10 52.35-48.47L52.35-48.47L52.35-48.47Q54.54-46.84 55.06-44.25L55.06-44.25L55.06-44.25Q52.54-43.22 51.36-42.40L51.36-42.40L51.36-42.40Q48.40-40.18 44.40-35.22L44.40-35.22L37.67-27.16L37.67-27.16Q36.04-25.23 35.37-24.35L35.37-24.35L35.37-24.35Q36.48-18.13 39.81-11.99L39.81-11.99L39.81-11.99Q42.99-6.14 46.40-4.37ZM80.59-12.51L80.59-12.51L80.59-12.51Q82.44-11.25 82.44-8.47L82.44-8.47L82.44-8.47Q82.44-5.70 81.03-3.92L81.03-3.92L81.03-3.92Q79.62-2.15 77.33-0.96L77.33-0.96L77.33-0.96Q72.59 1.48 67.49 1.48L67.49 1.48L67.49 1.48Q62.38 1.48 59.38 0.37L59.38 0.37L59.38 0.37Q56.39-0.74 54.39-2.81L54.39-2.81L54.39-2.81Q50.47-6.73 50.47-13.91L50.47-13.91L50.47-13.91Q50.47-25.09 56.54-31.89L56.54-31.89L56.54-31.89Q63.05-39.22 74.37-39.22L74.37-39.22L74.37-39.22Q81.40-39.22 84.88-36.26L84.88-36.26L84.88-36.26Q87.47-34.04 87.47-30.41L87.47-30.41L87.47-30.41Q87.47-17.39 64.97-17.39L64.97-17.39L64.97-17.39Q64.68-15.47 64.68-13.84L64.68-13.84L64.68-13.84Q64.68-10.43 66.19-9.14L66.19-9.14L66.19-9.14Q67.71-7.84 70.52-7.84L70.52-7.84L70.52-7.84Q73.33-7.84 76.33-9.14L76.33-9.14L76.33-9.14Q79.33-10.43 80.59-12.51ZM65.49-20.57L65.49-20.57L65.49-20.57Q70.74-20.57 73.78-23.83L73.78-23.83L73.78-23.83Q76.81-26.94 76.81-31.89L76.81-31.89L76.81-31.89Q76.81-33.60 76.18-34.52L76.18-34.52L76.18-34.52Q75.55-35.45 74.30-35.45L74.30-35.45L74.30-35.45Q73.04-35.45 71.97-34.96L71.97-34.96L71.97-34.96Q70.89-34.48 69.78-32.86L69.78-32.86L69.78-32.86Q67.04-29.16 65.49-20.57ZM119.95-12.51L119.95-12.51L119.95-12.51Q121.80-11.25 121.80-8.47L121.80-8.47L121.80-8.47Q121.80-5.70 120.40-3.92L120.40-3.92L120.40-3.92Q118.99-2.15 116.70-0.96L116.70-0.96L116.70-0.96Q111.96 1.48 106.86 1.48L106.86 1.48L106.86 1.48Q101.75 1.48 98.75 0.37L98.75 0.37L98.75 0.37Q95.76-0.74 93.76-2.81L93.76-2.81L93.76-2.81Q89.84-6.73 89.84-13.91L89.84-13.91L89.84-13.91Q89.84-25.09 95.90-31.89L95.90-31.89L95.90-31.89Q102.42-39.22 113.74-39.22L113.74-39.22L113.74-39.22Q120.77-39.22 124.25-36.26L124.25-36.26L124.25-36.26Q126.84-34.04 126.84-30.41L126.84-30.41L126.84-30.41Q126.84-17.39 104.34-17.39L104.34-17.39L104.34-17.39Q104.04-15.47 104.04-13.84L104.04-13.84L104.04-13.84Q104.04-10.43 105.56-9.14L105.56-9.14L105.56-9.14Q107.08-7.84 109.89-7.84L109.89-7.84L109.89-7.84Q112.70-7.84 115.70-9.14L115.70-9.14L115.70-9.14Q118.70-10.43 119.95-12.51ZM104.86-20.57L104.86-20.57L104.86-20.57Q110.11-20.57 113.15-23.83L113.15-23.83L113.15-23.83Q116.18-26.94 116.18-31.89L116.18-31.89L116.18-31.89Q116.18-33.60 115.55-34.52L115.55-34.52L115.55-34.52Q114.92-35.45 113.66-35.45L113.66-35.45L113.66-35.45Q112.41-35.45 111.33-34.96L111.33-34.96L111.33-34.96Q110.26-34.48 109.15-32.86L109.15-32.86L109.15-32.86Q106.41-29.16 104.86-20.57ZM163.84-5.07L163.84-5.07L163.84-5.07Q160.73-1.92 156.47-0.22L156.47-0.22L156.47-0.22Q152.22 1.48 148 1.48L148 1.48L148 1.48Q143.78 1.48 142.30 0.74L142.30 0.74L140.01 13.32L124.99 14.80L135.20-37.74L147.26-39.00L146.30-33.89L146.30-33.89Q149.41-39.15 155.84-39.15L155.84-39.15L155.84-39.15Q163.10-39.15 166.94-34.48L166.94-34.48L166.94-34.48Q170.35-30.27 170.35-23.83L170.35-23.83L170.35-23.83Q170.35-17.39 168.65-12.80L168.65-12.80L168.65-12.80Q166.94-8.21 163.84-5.07ZM147.11-25.83L143.19-4.14L143.19-4.14Q144.74-2.81 146.67-2.81L146.67-2.81L146.67-2.81Q148.59-2.81 149.70-3.55L149.70-3.55L149.70-3.55Q150.81-4.29 151.63-5.77L151.63-5.77L151.63-5.77Q153.85-9.77 155.62-21.90L155.62-21.90L155.62-21.90Q156.14-25.46 156.14-28.93L156.14-28.93L156.14-28.93Q156.14-32.41 155.36-33.52L155.36-33.52L155.36-33.52Q154.59-34.63 153.11-34.63L153.11-34.63L153.11-34.63Q148.59-34.63 147.11-25.83L147.11-25.83ZM197.65 0L189.51 0L198.39-48.84L214.30-48.84L225.85-15.24L231.99-48.84L240.20-48.77L231.18 0L214.23 0L203.57-32.34L197.65 0ZM258.19 1.48L258.19 1.48L258.19 1.48Q241.91 1.48 241.91-13.84L241.91-13.84L241.91-13.84Q241.91-24.72 247.90-31.75L247.90-31.75L247.90-31.75Q254.26-39.22 265.29-39.22L265.29-39.22L265.29-39.22Q273.28-39.22 277.35-35.52L277.35-35.52L277.35-35.52Q281.42-31.82 281.42-24.05L281.42-24.05L281.42-24.05Q281.42-12.21 275.06-5.33L275.06-5.33L275.06-5.33Q268.84 1.48 258.19 1.48ZM260.11-30.71L260.11-30.71L260.11-30.71Q259.22-28.71 258.52-25.71L258.52-25.71L258.52-25.71Q257.82-22.72 256.93-17.98L256.93-17.98L256.93-17.98Q256.04-13.25 256.04-7.40L256.04-7.40L256.04-7.40Q256.04-5.48 256.67-4.22L256.67-4.22L256.67-4.22Q257.30-2.96 259-2.96L259-2.96L259-2.96Q260.70-2.96 261.77-3.77L261.77-3.77L261.77-3.77Q262.85-4.59 263.66-6.51L263.66-6.51L263.66-6.51Q265.14-9.92 266.33-16.24L266.33-16.24L266.33-16.24Q267.51-22.57 267.62-25.31L267.62-25.31L267.62-25.31Q267.73-28.05 267.73-30.08L267.73-30.08L267.73-30.08Q267.73-32.12 267.14-33.45L267.14-33.45L267.14-33.45Q266.55-34.78 264.88-34.78L264.88-34.78L264.88-34.78Q263.22-34.78 262.11-33.74L262.11-33.74L262.11-33.74Q261.00-32.71 260.11-30.71ZM286.97-7.40L286.97-7.40L286.97-7.40Q286.97-9.40 288.01-14.43L288.01-14.43L291.93-34.41L287.56-34.41L287.86-36.63L287.86-36.63Q296.74-39.29 305.32-45.81L305.32-45.81L308.88-45.81L307.10-37.74L312.87-37.74L312.21-34.41L306.51-34.41L302.73-14.43L302.73-14.43Q301.77-9.84 301.77-8.29L301.77-8.29L301.77-8.29Q301.77-4.74 304.88-4.00L304.88-4.00L304.88-4.00Q304.14-1.48 301.48 0L301.48 0L301.48 0Q298.81 1.48 295.04 1.48L295.04 1.48L295.04 1.48Q291.26 1.48 289.12-0.89L289.12-0.89L289.12-0.89Q286.97-3.26 286.97-7.40ZM342.18-12.51L342.18-12.51L342.18-12.51Q344.03-11.25 344.03-8.47L344.03-8.47L344.03-8.47Q344.03-5.70 342.62-3.92L342.62-3.92L342.62-3.92Q341.21-2.15 338.92-0.96L338.92-0.96L338.92-0.96Q334.18 1.48 329.08 1.48L329.08 1.48L329.08 1.48Q323.97 1.48 320.97 0.37L320.97 0.37L320.97 0.37Q317.98-0.74 315.98-2.81L315.98-2.81L315.98-2.81Q312.06-6.73 312.06-13.91L312.06-13.91L312.06-13.91Q312.06-25.09 318.13-31.89L318.13-31.89L318.13-31.89Q324.64-39.22 335.96-39.22L335.96-39.22L335.96-39.22Q342.99-39.22 346.47-36.26L346.47-36.26L346.47-36.26Q349.06-34.04 349.06-30.41L349.06-30.41L349.06-30.41Q349.06-17.39 326.56-17.39L326.56-17.39L326.56-17.39Q326.27-15.47 326.27-13.84L326.27-13.84L326.27-13.84Q326.27-10.43 327.78-9.14L327.78-9.14L327.78-9.14Q329.30-7.84 332.11-7.84L332.11-7.84L332.11-7.84Q334.92-7.84 337.92-9.14L337.92-9.14L337.92-9.14Q340.92-10.43 342.18-12.51ZM327.08-20.57L327.08-20.57L327.08-20.57Q332.33-20.57 335.37-23.83L335.37-23.83L335.37-23.83Q338.40-26.94 338.40-31.89L338.40-31.89L338.40-31.89Q338.40-33.60 337.77-34.52L337.77-34.52L337.77-34.52Q337.14-35.45 335.89-35.45L335.89-35.45L335.89-35.45Q334.63-35.45 333.55-34.96L333.55-34.96L333.55-34.96Q332.48-34.48 331.37-32.86L331.37-32.86L331.37-32.86Q328.63-29.16 327.08-20.57ZM373.70-25.97L373.70-25.97L373.70-25.97Q374.74-28.71 374.74-31.08L374.74-31.08L374.74-31.08Q374.74-35.45 371.18-35.45L371.18-35.45L371.18-35.45Q369.33-35.45 367.82-33.78L367.82-33.78L367.82-33.78Q366.30-32.12 366.30-30.04L366.30-30.04L366.30-30.04Q366.30-28.56 367.48-27.38L367.48-27.38L367.48-27.38Q369.19-25.75 373.55-23.09L373.55-23.09L373.55-23.09Q377.92-20.42 379.58-18.24L379.58-18.24L379.58-18.24Q381.25-16.06 381.25-13.06L381.25-13.06L381.25-13.06Q381.25-10.06 379.80-7.33L379.80-7.33L379.80-7.33Q378.36-4.59 375.77-2.66L375.77-2.66L375.77-2.66Q370.22 1.48 361.34 1.48L361.34 1.48L361.34 1.48Q356.53 1.48 352.83-1.04L352.83-1.04L352.83-1.04Q349.13-3.48 349.13-6.36L349.13-6.36L349.13-6.36Q349.13-9.25 351.24-10.95L351.24-10.95L351.24-10.95Q353.35-12.65 356.46-12.65L356.46-12.65L356.46-12.65Q359.57-12.65 361.49-11.47L361.49-11.47L361.49-11.47Q360.53-9.03 360.53-7.40L360.53-7.40L360.53-7.40Q360.53-2.52 364.67-2.52L364.67-2.52L364.67-2.52Q366.45-2.52 367.63-3.63L367.63-3.63L367.63-3.63Q368.82-4.74 368.82-6.66L368.82-6.66L368.82-6.66Q368.82-10.43 362.45-14.43L362.45-14.43L362.45-14.43Q357.27-17.83 356.09-19.17L356.09-19.17L356.09-19.17Q354.09-21.53 354.09-24.49L354.09-24.49L354.09-24.49Q354.09-27.45 355.50-30.27L355.50-30.27L355.50-30.27Q356.90-33.08 359.49-35.08L359.49-35.08L359.49-35.08Q364.89-39.22 374.29-39.22L374.29-39.22L374.29-39.22Q379.10-39.22 381.95-37.30L381.95-37.30L381.95-37.30Q384.80-35.37 384.80-32.12L384.80-32.12L384.80-32.12Q384.80-28.86 382.84-27.01L382.84-27.01L382.84-27.01Q380.88-25.16 377.33-25.16L377.33-25.16L377.33-25.16Q374.88-25.16 373.70-25.97Z" fill="url(#editing-shiny-gradient2)"></path></g></g><style>text {
  font-size: 64px;
  font-family: Arial Black;
  dominant-baseline: central;
  text-anchor: middle;
}</style></svg>